<?xml version="1.0" encoding="UTF-8"?>
<!-- pose-control-plate-v1 | pose seated-guest-three-quarter-left | posture seated | facing three-quarter-left | body canvas 1530x2048 | GENERATED, do not hand-edit; run npm run derive:pose-plates -->
<svg xmlns="http://www.w3.org/2000/svg" width="1530.00" height="2073.99" viewBox="0 -5.51 1530.00 2073.99">
<rect x="0" y="-5.51" width="1530.00" height="2073.99" fill="#000000"/>
<rect x="0.5" y="0.5" width="1529.00" height="2047.00" fill="none" stroke="#3a3a3a" stroke-width="1"/>
<line x1="0" y1="1269.76" x2="1530.00" y2="1269.76" stroke="#4d4d4d" stroke-width="2" stroke-dasharray="18 14"/>
<line x1="0" y1="1996.80" x2="1530.00" y2="1996.80" stroke="#4d4d4d" stroke-width="2" stroke-dasharray="18 14"/>
<line x1="765.00" y1="296.96" x2="765.00" y2="409.60" stroke="#6b6b6b" stroke-width="101.99" stroke-linecap="round"/>
<line x1="765.00" y1="409.60" x2="765.00" y2="620.54" stroke="#6b6b6b" stroke-width="166.72" stroke-linecap="round"/>
<line x1="765.00" y1="620.54" x2="765.00" y2="1269.76" stroke="#6b6b6b" stroke-width="225.56" stroke-linecap="round"/>
<line x1="765.00" y1="409.60" x2="420.75" y2="403.46" stroke="#6b6b6b" stroke-width="117.68" stroke-linecap="round"/>
<line x1="765.00" y1="409.60" x2="1109.25" y2="403.46" stroke="#6b6b6b" stroke-width="117.68" stroke-linecap="round"/>
<line x1="420.75" y1="403.46" x2="394.74" y2="901.12" stroke="#6b6b6b" stroke-width="98.07" stroke-linecap="round"/>
<line x1="394.74" y1="901.12" x2="514.08" y2="1249.28" stroke="#6b6b6b" stroke-width="78.45" stroke-linecap="round"/>
<line x1="514.08" y1="1249.28" x2="570.69" y2="1320.96" stroke="#6b6b6b" stroke-width="74.53" stroke-linecap="round"/>
<line x1="1109.25" y1="403.46" x2="1135.26" y2="901.12" stroke="#6b6b6b" stroke-width="98.07" stroke-linecap="round"/>
<line x1="1135.26" y1="901.12" x2="1015.92" y2="1249.28" stroke="#6b6b6b" stroke-width="78.45" stroke-linecap="round"/>
<line x1="1015.92" y1="1249.28" x2="959.31" y2="1320.96" stroke="#6b6b6b" stroke-width="74.53" stroke-linecap="round"/>
<line x1="765.00" y1="1269.76" x2="497.25" y2="1253.38" stroke="#6b6b6b" stroke-width="147.10" stroke-linecap="round"/>
<line x1="765.00" y1="1269.76" x2="1032.75" y2="1253.38" stroke="#6b6b6b" stroke-width="147.10" stroke-linecap="round"/>
<line x1="497.25" y1="1253.38" x2="613.53" y2="1507.33" stroke="#6b6b6b" stroke-width="133.37" stroke-linecap="round"/>
<line x1="613.53" y1="1507.33" x2="613.53" y2="1923.07" stroke="#6b6b6b" stroke-width="98.07" stroke-linecap="round"/>
<line x1="1032.75" y1="1253.38" x2="916.47" y2="1507.33" stroke="#6b6b6b" stroke-width="133.37" stroke-linecap="round"/>
<line x1="916.47" y1="1507.33" x2="916.47" y2="1923.07" stroke="#6b6b6b" stroke-width="98.07" stroke-linecap="round"/>
<line x1="613.53" y1="1923.07" x2="601.29" y2="1996.80" stroke="#6b6b6b" stroke-width="88.26" stroke-linecap="round"/>
<line x1="916.47" y1="1923.07" x2="928.71" y2="1996.80" stroke="#6b6b6b" stroke-width="88.26" stroke-linecap="round"/>
<polygon points="420.75,403.46 1109.25,403.46 1032.75,1253.38 497.25,1253.38" fill="#6b6b6b"/>
<ellipse cx="765.00" cy="166.20" rx="94.14" ry="130.76" fill="#6b6b6b" stroke="#ffffff" stroke-width="7.85"/>
<line x1="765.00" y1="296.96" x2="765.00" y2="409.60" stroke="#ffffff" stroke-width="7.85" stroke-linecap="round"/>
<line x1="765.00" y1="409.60" x2="765.00" y2="620.54" stroke="#ffffff" stroke-width="7.85" stroke-linecap="round"/>
<line x1="765.00" y1="620.54" x2="765.00" y2="1269.76" stroke="#ffffff" stroke-width="7.85" stroke-linecap="round"/>
<line x1="765.00" y1="409.60" x2="420.75" y2="403.46" stroke="#ffffff" stroke-width="7.85" stroke-linecap="round"/>
<line x1="765.00" y1="409.60" x2="1109.25" y2="403.46" stroke="#ffffff" stroke-width="7.85" stroke-linecap="round"/>
<line x1="420.75" y1="403.46" x2="394.74" y2="901.12" stroke="#ffffff" stroke-width="7.85" stroke-linecap="round"/>
<line x1="394.74" y1="901.12" x2="514.08" y2="1249.28" stroke="#ffffff" stroke-width="7.85" stroke-linecap="round"/>
<line x1="514.08" y1="1249.28" x2="570.69" y2="1320.96" stroke="#ffffff" stroke-width="7.85" stroke-linecap="round"/>
<line x1="1109.25" y1="403.46" x2="1135.26" y2="901.12" stroke="#ffffff" stroke-width="7.85" stroke-linecap="round"/>
<line x1="1135.26" y1="901.12" x2="1015.92" y2="1249.28" stroke="#ffffff" stroke-width="7.85" stroke-linecap="round"/>
<line x1="1015.92" y1="1249.28" x2="959.31" y2="1320.96" stroke="#ffffff" stroke-width="7.85" stroke-linecap="round"/>
<line x1="765.00" y1="1269.76" x2="497.25" y2="1253.38" stroke="#ffffff" stroke-width="7.85" stroke-linecap="round"/>
<line x1="765.00" y1="1269.76" x2="1032.75" y2="1253.38" stroke="#ffffff" stroke-width="7.85" stroke-linecap="round"/>
<line x1="497.25" y1="1253.38" x2="613.53" y2="1507.33" stroke="#ffffff" stroke-width="7.85" stroke-linecap="round"/>
<line x1="613.53" y1="1507.33" x2="613.53" y2="1923.07" stroke="#ffffff" stroke-width="7.85" stroke-linecap="round"/>
<line x1="1032.75" y1="1253.38" x2="916.47" y2="1507.33" stroke="#ffffff" stroke-width="7.85" stroke-linecap="round"/>
<line x1="916.47" y1="1507.33" x2="916.47" y2="1923.07" stroke="#ffffff" stroke-width="7.85" stroke-linecap="round"/>
<line x1="613.53" y1="1923.07" x2="601.29" y2="1996.80" stroke="#ffffff" stroke-width="7.85" stroke-linecap="round"/>
<line x1="916.47" y1="1923.07" x2="928.71" y2="1996.80" stroke="#ffffff" stroke-width="7.85" stroke-linecap="round"/>
<circle cx="613.53" cy="1923.07" r="11.77" fill="#ffffff"/>
<circle cx="916.47" cy="1923.07" r="11.77" fill="#ffffff"/>
<circle cx="765.00" cy="620.54" r="11.77" fill="#ffffff"/>
<circle cx="394.74" cy="901.12" r="11.77" fill="#ffffff"/>
<circle cx="1135.26" cy="901.12" r="11.77" fill="#ffffff"/>
<circle cx="570.69" cy="1320.96" r="11.77" fill="#ffffff"/>
<circle cx="959.31" cy="1320.96" r="11.77" fill="#ffffff"/>
<circle cx="765.00" cy="296.96" r="11.77" fill="#ffffff"/>
<circle cx="497.25" cy="1253.38" r="11.77" fill="#ffffff"/>
<circle cx="1032.75" cy="1253.38" r="11.77" fill="#ffffff"/>
<circle cx="613.53" cy="1507.33" r="11.77" fill="#ffffff"/>
<circle cx="916.47" cy="1507.33" r="11.77" fill="#ffffff"/>
<circle cx="765.00" cy="409.60" r="11.77" fill="#ffffff"/>
<circle cx="765.00" cy="1269.76" r="11.77" fill="#ffffff"/>
<circle cx="420.75" cy="403.46" r="11.77" fill="#ffffff"/>
<circle cx="1109.25" cy="403.46" r="11.77" fill="#ffffff"/>
<circle cx="514.08" cy="1249.28" r="11.77" fill="#ffffff"/>
<circle cx="1015.92" cy="1249.28" r="11.77" fill="#ffffff"/>
<circle cx="765.00" cy="1269.76" r="17.65" fill="none" stroke="#ff6a3d" stroke-width="7.85"/>
<circle cx="601.29" cy="1996.80" r="17.65" fill="none" stroke="#ff6a3d" stroke-width="7.85"/>
<circle cx="928.71" cy="1996.80" r="17.65" fill="none" stroke="#ff6a3d" stroke-width="7.85"/>
</svg>
