<svg xmlns="http://www.w3.org/2000/svg" width="565" height="1024" viewBox="0 0 565 1024"><rect width="100%" height="100%" fill="white"/><image href="../girl-8-seated-reading-everyday-fuller.png" width="565" height="1024"/><path d="M0 500 H565" stroke="#777" opacity=".4"/><text x="2" y="497" font-size="11">500</text><path d="M0 525 H565" stroke="#777" opacity=".4"/><text x="2" y="522" font-size="11">525</text><path d="M0 550 H565" stroke="#777" opacity=".4"/><text x="2" y="547" font-size="11">550</text><path d="M0 575 H565" stroke="#777" opacity=".4"/><text x="2" y="572" font-size="11">575</text><path d="M0 600 H565" stroke="#777" opacity=".4"/><text x="2" y="597" font-size="11">600</text><path d="M0 625 H565" stroke="#777" opacity=".4"/><text x="2" y="622" font-size="11">625</text><path d="M0 650 H565" stroke="#777" opacity=".4"/><text x="2" y="647" font-size="11">650</text><path d="M0 675 H565" stroke="#777" opacity=".4"/><text x="2" y="672" font-size="11">675</text><path d="M0 700 H565" stroke="#777" opacity=".4"/><text x="2" y="697" font-size="11">700</text><path d="M0 725 H565" stroke="#777" opacity=".4"/><text x="2" y="722" font-size="11">725</text><path d="M0 750 H565" stroke="#777" opacity=".4"/><text x="2" y="747" font-size="11">750</text><path d="M0 775 H565" stroke="#777" opacity=".4"/><text x="2" y="772" font-size="11">775</text><path d="M0 800 H565" stroke="#777" opacity=".4"/><text x="2" y="797" font-size="11">800</text><path d="M0 933 H565" stroke="blue"/><text x="4" y="20" font-size="12">Native coordinate guide; seat contact NOT accepted</text></svg>