<svg xmlns="http://www.w3.org/2000/svg" xmlns:xlink="http://www.w3.org/1999/xlink" width="400" height="640" viewBox="0 0 400 640">
  <title>dev_body_adult_seated_v1 — seated-at-desk — arm-measure-v1</title>
  <image href="../../../generated/approved/dev-modular/dev_body_adult_seated_v1.png" xlink:href="../../../generated/approved/dev-modular/dev_body_adult_seated_v1.png" width="400" height="640" />
  <line x1="199.5" y1="132" x2="199.5" y2="365" stroke="#2563eb" stroke-width="1" stroke-dasharray="4 3" />
  <line x1="0" y1="132" x2="400" y2="132" stroke="#2563eb" stroke-width="1" opacity="0.5" />
  <polyline points="79,132 78,148 76,163 74,179 72,194 71,210 69,225 67,241 65,256 64,272 62,287 60,303 58,318 57,334 55,349 53,365" fill="none" stroke="#111827" stroke-width="1" />
  <circle cx="79" cy="132" r="1" fill="#dc2626" />
  <circle cx="78" cy="148" r="1" fill="#dc2626" />
  <circle cx="76" cy="163" r="1" fill="#dc2626" />
  <circle cx="74" cy="179" r="1" fill="#dc2626" />
  <circle cx="72" cy="194" r="1" fill="#dc2626" />
  <circle cx="71" cy="210" r="1" fill="#dc2626" />
  <circle cx="69" cy="225" r="1" fill="#dc2626" />
  <circle cx="67" cy="241" r="1" fill="#dc2626" />
  <circle cx="65" cy="256" r="1" fill="#dc2626" />
  <circle cx="64" cy="272" r="1" fill="#dc2626" />
  <circle cx="62" cy="287" r="1" fill="#dc2626" />
  <circle cx="60" cy="303" r="1" fill="#dc2626" />
  <circle cx="58" cy="318" r="1" fill="#dc2626" />
  <circle cx="57" cy="334" r="1" fill="#dc2626" />
  <circle cx="55" cy="349" r="1" fill="#dc2626" />
  <circle cx="79" cy="132" r="4" fill="#1f9d55" fill-opacity="0.85" stroke="#ffffff" stroke-width="1"><title>left shoulder: measured — Outer silhouette edge at the shoulder row — the first row at or below the neck reaching 92% of the widest painted width within 15% of figure height, the rule the accepted body rig uses. A silhouette shoulder, not the joint centre; on a pose whose upper arm lifts above the shoulder line the row moves with it.</title></circle>
  <polyline points="320,132 321,148 323,163 325,179 327,194 328,210 330,225 332,241 334,256 335,272 337,287 339,303 341,318 342,334 344,349 346,365" fill="none" stroke="#111827" stroke-width="1" />
  <circle cx="320" cy="132" r="1" fill="#dc2626" />
  <circle cx="321" cy="148" r="1" fill="#dc2626" />
  <circle cx="323" cy="163" r="1" fill="#dc2626" />
  <circle cx="325" cy="179" r="1" fill="#dc2626" />
  <circle cx="327" cy="194" r="1" fill="#dc2626" />
  <circle cx="328" cy="210" r="1" fill="#dc2626" />
  <circle cx="330" cy="225" r="1" fill="#dc2626" />
  <circle cx="332" cy="241" r="1" fill="#dc2626" />
  <circle cx="334" cy="256" r="1" fill="#dc2626" />
  <circle cx="335" cy="272" r="1" fill="#dc2626" />
  <circle cx="337" cy="287" r="1" fill="#dc2626" />
  <circle cx="339" cy="303" r="1" fill="#dc2626" />
  <circle cx="341" cy="318" r="1" fill="#dc2626" />
  <circle cx="342" cy="334" r="1" fill="#dc2626" />
  <circle cx="344" cy="349" r="1" fill="#dc2626" />
  <circle cx="320" cy="132" r="4" fill="#1f9d55" fill-opacity="0.85" stroke="#ffffff" stroke-width="1"><title>right shoulder: measured — Outer silhouette edge at the shoulder row — the first row at or below the neck reaching 92% of the widest painted width within 15% of figure height, the rule the accepted body rig uses. A silhouette shoulder, not the joint centre; on a pose whose upper arm lifts above the shoulder line the row moves with it.</title></circle>
  <text x="5" y="14" font-family="monospace" font-size="10" fill="#111827" stroke="#ffffff" stroke-width="2" paint-order="stroke">dev_body_adult_seated_v1</text>
  <text x="5" y="27" font-family="monospace" font-size="10" fill="#111827" stroke="#ffffff" stroke-width="2" paint-order="stroke">dev-adult / seated-at-desk</text>
  <text x="5" y="40" font-family="monospace" font-size="10" fill="#dc2626" stroke="#ffffff" stroke-width="2" paint-order="stroke">left: occluded (fused)</text>
  <text x="5" y="53" font-family="monospace" font-size="10" fill="#111827" stroke="#ffffff" stroke-width="2" paint-order="stroke">  shoulder measured · elbow occluded · wrist occluded</text>
  <text x="5" y="66" font-family="monospace" font-size="10" fill="#dc2626" stroke="#ffffff" stroke-width="2" paint-order="stroke">right: occluded (fused)</text>
  <text x="5" y="79" font-family="monospace" font-size="10" fill="#111827" stroke="#ffffff" stroke-width="2" paint-order="stroke">  shoulder measured · elbow occluded · wrist occluded</text>
  <text x="5" y="92" font-family="monospace" font-size="10" fill="#111827" stroke="#ffffff" stroke-width="2" paint-order="stroke">fused-row samples marked red; inner contour dashed</text>
</svg>
