<svg xmlns="http://www.w3.org/2000/svg" xmlns:xlink="http://www.w3.org/1999/xlink" width="864" height="1705" viewBox="0 0 864 1705">
  <title>ocd_body_adult_fem_standing_conversational_a_v1 — standing-conversational — arm-measure-v1</title>
  <image href="../../../generated/candidates/ocd-p71/bodies/ocd_body_adult_fem_standing_conversational_a_v1.png" xlink:href="../../../generated/candidates/ocd-p71/bodies/ocd_body_adult_fem_standing_conversational_a_v1.png" width="864" height="1705" />
  <line x1="317" y1="301" x2="321.5" y2="853" stroke="#2563eb" stroke-width="3" stroke-dasharray="12 9" />
  <line x1="0" y1="457" x2="864" y2="457" stroke="#2563eb" stroke-width="3" opacity="0.5" />
  <polyline points="93,457 88,483 81,510 76,536 71,563 67,589 64,615 67,642 76,668 156,695 149,721 138,747 128,774 121,800 115,827 111,853" fill="none" stroke="#111827" stroke-width="3" />
  <circle cx="93" cy="457" r="3" fill="#dc2626" />
  <circle cx="88" cy="483" r="3" fill="#dc2626" />
  <circle cx="81" cy="510" r="3" fill="#dc2626" />
  <circle cx="76" cy="536" r="3" fill="#dc2626" />
  <circle cx="71" cy="563" r="3" fill="#dc2626" />
  <circle cx="67" cy="589" r="3" fill="#dc2626" />
  <circle cx="64" cy="615" r="3" fill="#dc2626" />
  <circle cx="67" cy="642" r="3" fill="#dc2626" />
  <circle cx="76" cy="668" r="3" fill="#dc2626" />
  <circle cx="156" cy="695" r="3" fill="#dc2626" />
  <circle cx="149" cy="721" r="3" fill="#dc2626" />
  <circle cx="138" cy="747" r="3" fill="#dc2626" />
  <circle cx="128" cy="774" r="3" fill="#dc2626" />
  <circle cx="121" cy="800" r="3" fill="#dc2626" />
  <circle cx="115" cy="827" r="3" fill="#dc2626" />
  <circle cx="111" cy="853" r="3" fill="#dc2626" />
  <circle cx="93" cy="457" r="10" fill="#1f9d55" fill-opacity="0.85" stroke="#ffffff" stroke-width="2"><title>left shoulder: measured — Outer silhouette edge at the shoulder row — the first row at or below the neck reaching 92% of the widest painted width within 15% of figure height, the rule the accepted body rig uses. A silhouette shoulder, not the joint centre; on a pose whose upper arm lifts above the shoulder line the row moves with it.</title></circle>
  <polyline points="525,457 526,464 528,471 530,479 531,486 533,493 745,500 747,507 746,515 741,522 733,529 773,536 794,543 798,551 797,558 788,565" fill="none" stroke="#111827" stroke-width="3" />
  <circle cx="525" cy="457" r="3" fill="#dc2626" />
  <circle cx="526" cy="464" r="3" fill="#dc2626" />
  <circle cx="528" cy="471" r="3" fill="#dc2626" />
  <circle cx="530" cy="479" r="3" fill="#dc2626" />
  <circle cx="531" cy="486" r="3" fill="#dc2626" />
  <circle cx="533" cy="493" r="3" fill="#dc2626" />
  <circle cx="525" cy="457" r="10" fill="#1f9d55" fill-opacity="0.85" stroke="#ffffff" stroke-width="2"><title>right shoulder: measured — Outer silhouette edge at the shoulder row — the first row at or below the neck reaching 92% of the widest painted width within 15% of figure height, the rule the accepted body rig uses. A silhouette shoulder, not the joint centre; on a pose whose upper arm lifts above the shoulder line the row moves with it.</title></circle>
  <line x1="525" y1="457" x2="567" y2="565" stroke="#d97706" stroke-width="3" />
  <circle cx="567" cy="565" r="10" fill="#d97706" fill-opacity="0.85" stroke="#ffffff" stroke-width="2"><title>right elbow: partially-measured — Root end of the separated segment where it meets the fused silhouette. The arm is carried forward or raised, so the segment that clears the torso is the forearm and the joint lies at or inside the fused boundary; this is the nearest the alpha gets to it.</title></circle>
  <circle cx="799" cy="552" r="10" fill="#d97706" fill-opacity="0.85" stroke="#ffffff" stroke-width="2"><title>right extremity: partially-measured — Far end of the separated segment along its principal axis. Not shown to be a hand.</title></circle>
  <text x="11" y="31" font-family="monospace" font-size="22" fill="#111827" stroke="#ffffff" stroke-width="4" paint-order="stroke">ocd_body_adult_fem_standing_conversational_a_v1</text>
  <text x="11" y="59" font-family="monospace" font-size="22" fill="#111827" stroke="#ffffff" stroke-width="4" paint-order="stroke">ocd-adult-feminine (unregistered) / standing-conversational</text>
  <text x="11" y="88" font-family="monospace" font-size="22" fill="#dc2626" stroke="#ffffff" stroke-width="4" paint-order="stroke">left: occluded (fused)</text>
  <text x="11" y="117" font-family="monospace" font-size="22" fill="#111827" stroke="#ffffff" stroke-width="4" paint-order="stroke">  shoulder measured · elbow occluded · wrist occluded</text>
  <text x="11" y="145" font-family="monospace" font-size="22" fill="#d97706" stroke="#ffffff" stroke-width="4" paint-order="stroke">right: partially-measured (raised-or-forward)</text>
  <text x="11" y="174" font-family="monospace" font-size="22" fill="#111827" stroke="#ffffff" stroke-width="4" paint-order="stroke">  shoulder measured · elbow partially-measured · wrist ambiguous</text>
  <text x="11" y="202" font-family="monospace" font-size="22" fill="#111827" stroke="#ffffff" stroke-width="4" paint-order="stroke">fused-row samples marked red; inner contour dashed</text>
</svg>
