<svg xmlns="http://www.w3.org/2000/svg" xmlns:xlink="http://www.w3.org/1999/xlink" width="859" height="1641" viewBox="0 0 859 1641">
  <title>ocd_body_adult_fem_seated_guest_front_v1 — seated-guest-neutral — arm-measure-v1</title>
  <image href="../../../generated/candidates/ocd-p71/bodies/ocd_body_adult_fem_seated_guest_front_v1.png" xlink:href="../../../generated/candidates/ocd-p71/bodies/ocd_body_adult_fem_seated_guest_front_v1.png" width="859" height="1641" />
  <line x1="559.5" y1="328" x2="514" y2="821" stroke="#2563eb" stroke-width="3" stroke-dasharray="12 9" />
  <line x1="0" y1="449" x2="859" y2="449" stroke="#2563eb" stroke-width="3" opacity="0.5" />
  <polyline points="358,449 352,474 348,499 344,523 339,548 335,573 330,598 325,623 319,647 308,672 299,697 293,722 288,747 283,771 276,796 259,821" fill="none" stroke="#111827" stroke-width="3" />
  <circle cx="358" cy="449" r="3" fill="#dc2626" />
  <circle cx="352" cy="474" r="3" fill="#dc2626" />
  <circle cx="348" cy="499" r="3" fill="#dc2626" />
  <circle cx="344" cy="523" r="3" fill="#dc2626" />
  <circle cx="339" cy="548" r="3" fill="#dc2626" />
  <circle cx="335" cy="573" r="3" fill="#dc2626" />
  <circle cx="330" cy="598" r="3" fill="#dc2626" />
  <circle cx="325" cy="623" r="3" fill="#dc2626" />
  <circle cx="319" cy="647" r="3" fill="#dc2626" />
  <circle cx="308" cy="672" r="3" fill="#dc2626" />
  <circle cx="299" cy="697" r="3" fill="#dc2626" />
  <circle cx="293" cy="722" r="3" fill="#dc2626" />
  <circle cx="288" cy="747" r="3" fill="#dc2626" />
  <circle cx="283" cy="771" r="3" fill="#dc2626" />
  <circle cx="259" cy="821" r="3" fill="#dc2626" />
  <circle cx="358" cy="449" r="10" fill="#1f9d55" fill-opacity="0.85" stroke="#ffffff" stroke-width="2"><title>left shoulder: measured — Outer silhouette edge at the shoulder row — the first row at or below the neck reaching 92% of the widest painted width within 15% of figure height, the rule the accepted body rig uses. A silhouette shoulder, not the joint centre; on a pose whose upper arm lifts above the shoulder line the row moves with it.</title></circle>
  <polyline points="777,449 783,474 787,499 790,523 792,548 793,573 794,598 794,623 793,647 791,672 788,697 783,722 771,747 753,771 760,796 769,821" fill="none" stroke="#111827" stroke-width="3" />
  <circle cx="777" cy="449" r="3" fill="#dc2626" />
  <circle cx="783" cy="474" r="3" fill="#dc2626" />
  <circle cx="787" cy="499" r="3" fill="#dc2626" />
  <circle cx="790" cy="523" r="3" fill="#dc2626" />
  <circle cx="792" cy="548" r="3" fill="#dc2626" />
  <circle cx="793" cy="573" r="3" fill="#dc2626" />
  <circle cx="794" cy="598" r="3" fill="#dc2626" />
  <circle cx="794" cy="623" r="3" fill="#dc2626" />
  <circle cx="793" cy="647" r="3" fill="#dc2626" />
  <circle cx="791" cy="672" r="3" fill="#dc2626" />
  <circle cx="788" cy="697" r="3" fill="#dc2626" />
  <circle cx="783" cy="722" r="3" fill="#dc2626" />
  <circle cx="771" cy="747" r="3" fill="#dc2626" />
  <circle cx="753" cy="771" r="3" fill="#dc2626" />
  <circle cx="760" cy="796" r="3" fill="#dc2626" />
  <circle cx="769" cy="821" r="3" fill="#dc2626" />
  <circle cx="777" cy="449" r="10" fill="#1f9d55" fill-opacity="0.85" stroke="#ffffff" stroke-width="2"><title>right shoulder: measured — Outer silhouette edge at the shoulder row — the first row at or below the neck reaching 92% of the widest painted width within 15% of figure height, the rule the accepted body rig uses. A silhouette shoulder, not the joint centre; on a pose whose upper arm lifts above the shoulder line the row moves with it.</title></circle>
  <text x="11" y="29" font-family="monospace" font-size="21" fill="#111827" stroke="#ffffff" stroke-width="4" paint-order="stroke">ocd_body_adult_fem_seated_guest_front_v1</text>
  <text x="11" y="57" font-family="monospace" font-size="21" fill="#111827" stroke="#ffffff" stroke-width="4" paint-order="stroke">ocd-adult-feminine (unregistered) / seated-guest-neutral</text>
  <text x="11" y="84" font-family="monospace" font-size="21" fill="#dc2626" stroke="#ffffff" stroke-width="4" paint-order="stroke">left: occluded (fused)</text>
  <text x="11" y="111" font-family="monospace" font-size="21" fill="#111827" stroke="#ffffff" stroke-width="4" paint-order="stroke">  shoulder measured · elbow occluded · wrist occluded</text>
  <text x="11" y="139" font-family="monospace" font-size="21" fill="#dc2626" stroke="#ffffff" stroke-width="4" paint-order="stroke">right: occluded (fused)</text>
  <text x="11" y="166" font-family="monospace" font-size="21" fill="#111827" stroke="#ffffff" stroke-width="4" paint-order="stroke">  shoulder measured · elbow occluded · wrist occluded</text>
  <text x="11" y="193" font-family="monospace" font-size="21" fill="#111827" stroke="#ffffff" stroke-width="4" paint-order="stroke">fused-row samples marked red; inner contour dashed</text>
</svg>
