<svg xmlns="http://www.w3.org/2000/svg" xmlns:xlink="http://www.w3.org/1999/xlink" width="345" height="960" viewBox="0 0 345 960">
  <title>pg_body_ml_standing_v1 — standing-neutral — arm-measure-v1</title>
  <image href="../../../generated/approved/pg-modular/pg_body_ml_standing_v1.png" xlink:href="../../../generated/approved/pg-modular/pg_body_ml_standing_v1.png" width="345" height="960" />
  <line x1="172" y1="118" x2="171.5" y2="480" stroke="#2563eb" stroke-width="1" stroke-dasharray="4 3" />
  <line x1="0" y1="194" x2="345" y2="194" stroke="#2563eb" stroke-width="1" opacity="0.5" />
  <polyline points="47,194 40,219 39,243 36,268 32,292 29,317 21,342 15,366 12,391 10,415 8,440 5,465 3,489 0,514 6,538 33,563" fill="none" stroke="#111827" stroke-width="1" />
  <circle cx="47" cy="194" r="1" fill="#dc2626" />
  <circle cx="40" cy="219" r="1" fill="#dc2626" />
  <circle cx="39" cy="243" r="1" fill="#dc2626" />
  <circle cx="36" cy="268" r="1" fill="#dc2626" />
  <circle cx="32" cy="292" r="1" fill="#dc2626" />
  <polyline points="81,306 78,314 76,322 73,330 72,339 70,347 69,355 68,364 66,372 64,380 61,388 58,396 55,404 52,412 48,420 45,428 41,436 38,444 36,453 33,461 32,469 36,478 40,487 40,496 40,504 24,510 22,519 25,528 35,538 37,547" fill="none" stroke="#0ea5e9" stroke-width="1" stroke-dasharray="2 2" />
  <circle cx="47" cy="194" r="4" fill="#1f9d55" fill-opacity="0.85" stroke="#ffffff" stroke-width="1"><title>left shoulder: measured — Outer silhouette edge at the shoulder row — the first row at or below the neck reaching 92% of the widest painted width within 15% of figure height, the rule the accepted body rig uses. A silhouette shoulder, not the joint centre; on a pose whose upper arm lifts above the shoulder line the row moves with it.</title></circle>
  <line x1="47" y1="194" x2="13" y2="373" stroke="#d97706" stroke-width="1" />
  <circle cx="13" cy="373" r="4" fill="#d97706" fill-opacity="0.85" stroke="#ffffff" stroke-width="1"><title>left elbow: partially-measured — Point of greatest outward bow of the outer silhouette between the shoulder tip and the wrist row (7.95px, 0.0243 of the chord). This is the elbow REGION on the outer contour, not the joint centre, which sits inside the fused upper arm; a reviewer should confirm it.</title></circle>
  <line x1="13" y1="373" x2="17.57" y2="517.9" stroke="#1f9d55" stroke-width="1" />
  <circle cx="17.57" cy="517.9" r="4" fill="#1f9d55" fill-opacity="0.85" stroke="#ffffff" stroke-width="1"><title>left wrist: measured — Narrowest cross-section (23px) in the far half of the separated segment that is followed by a widening of at least 1.12x (to 31px, the hand). The point is the axis centre of that cross-section.</title></circle>
  <circle cx="33" cy="563" r="4" fill="#1f9d55" fill-opacity="0.85" stroke="#ffffff" stroke-width="1"><title>left extremity: measured — Far end of the separated segment along its principal axis; the hand's tip.</title></circle>
  <polyline points="296,194 303,219 305,243 308,268 312,292 315,317 323,342 329,366 332,391 334,415 336,440 339,465 341,489 344,514 337,538 311,563" fill="none" stroke="#111827" stroke-width="1" />
  <circle cx="296" cy="194" r="1" fill="#dc2626" />
  <circle cx="303" cy="219" r="1" fill="#dc2626" />
  <circle cx="305" cy="243" r="1" fill="#dc2626" />
  <circle cx="308" cy="268" r="1" fill="#dc2626" />
  <circle cx="312" cy="292" r="1" fill="#dc2626" />
  <polyline points="263,305 265,313 268,321 270,330 272,338 273,346 274,355 276,363 277,371 280,380 283,388 285,396 288,404 292,412 295,420 299,428 302,436 305,444 308,452 310,460 312,469 307,478 304,487 303,496 303,504 319,510 322,518 319,528 309,538 308,546" fill="none" stroke="#0ea5e9" stroke-width="1" stroke-dasharray="2 2" />
  <circle cx="296" cy="194" r="4" fill="#1f9d55" fill-opacity="0.85" stroke="#ffffff" stroke-width="1"><title>right shoulder: measured — Outer silhouette edge at the shoulder row — the first row at or below the neck reaching 92% of the widest painted width within 15% of figure height, the rule the accepted body rig uses. A silhouette shoulder, not the joint centre; on a pose whose upper arm lifts above the shoulder line the row moves with it.</title></circle>
  <line x1="296" y1="194" x2="331" y2="375" stroke="#d97706" stroke-width="1" />
  <circle cx="331" cy="375" r="4" fill="#d97706" fill-opacity="0.85" stroke="#ffffff" stroke-width="1"><title>right elbow: partially-measured — Point of greatest outward bow of the outer silhouette between the shoulder tip and the wrist row (8.1px, 0.0247 of the chord). This is the elbow REGION on the outer contour, not the joint centre, which sits inside the fused upper arm; a reviewer should confirm it.</title></circle>
  <line x1="331" y1="375" x2="326.16" y2="517.75" stroke="#1f9d55" stroke-width="1" />
  <circle cx="326.16" cy="517.75" r="4" fill="#1f9d55" fill-opacity="0.85" stroke="#ffffff" stroke-width="1"><title>right wrist: measured — Narrowest cross-section (23px) in the far half of the separated segment that is followed by a widening of at least 1.12x (to 31px, the hand). The point is the axis centre of that cross-section.</title></circle>
  <circle cx="311" cy="563" r="4" fill="#1f9d55" fill-opacity="0.85" stroke="#ffffff" stroke-width="1"><title>right extremity: measured — Far end of the separated segment along its principal axis; the hand's tip.</title></circle>
  <text x="5" y="14" font-family="monospace" font-size="10" fill="#111827" stroke="#ffffff" stroke-width="2" paint-order="stroke">pg_body_ml_standing_v1</text>
  <text x="5" y="27" font-family="monospace" font-size="10" fill="#111827" stroke="#ffffff" stroke-width="2" paint-order="stroke">pg-male-lean / standing-neutral</text>
  <text x="5" y="40" font-family="monospace" font-size="10" fill="#1f9d55" stroke="#ffffff" stroke-width="2" paint-order="stroke">left: measured (hanging)</text>
  <text x="5" y="53" font-family="monospace" font-size="10" fill="#111827" stroke="#ffffff" stroke-width="2" paint-order="stroke">  shoulder measured · elbow partially-measured · wrist measured</text>
  <text x="5" y="66" font-family="monospace" font-size="10" fill="#1f9d55" stroke="#ffffff" stroke-width="2" paint-order="stroke">right: measured (hanging)</text>
  <text x="5" y="79" font-family="monospace" font-size="10" fill="#111827" stroke="#ffffff" stroke-width="2" paint-order="stroke">  shoulder measured · elbow partially-measured · wrist measured</text>
  <text x="5" y="92" font-family="monospace" font-size="10" fill="#111827" stroke="#ffffff" stroke-width="2" paint-order="stroke">fused-row samples marked red; inner contour dashed</text>
</svg>
